{"title":"White Collar S05E11 HDTV 480p x264 AAC E-Subs [GWC].mp4","uid":9487986,"size":122534959,"categoryP":"video","categoryS":"tv_shows","magnet":"?xt=urn:btih:9c11ee79842283552ab16d0c06e0bbcc92180c9e&amp;dn=White+Collar+S05E11+HDTV+480p+x264+AAC+E-Subs+%5BGWC%5D.mp4&amp;tr=udp%3A%2F%2Ftracker.openbittorrent.com%3A80&amp;tr=udp%3A%2F%2Fopen.demonii.com%3A1337&amp;tr=udp%3A%2F%2Ftracker.coppersurfer.tk%3A6969&amp;tr=udp%3A%2F%2Fexodus.desync.com%3A6969","seeders":1,"leechers":0,"uploader":"canc232","files":1,"time":1389942574,"description":"White Collar S05E11 HDTV 480p x264 AAC E-Subs [GWC] \n\n\n\nSCREENS: &lt;a href=&quot;\nhttp://imageshack.com/a/img842/4379/9zwc.jpg&quot; rel=&quot;nofollow&quot; target=&quot;_NEW&quot;&gt;\nhttp://imageshack.com/a/img842/4379/9zwc.jpg&lt;/a&gt; &lt;a href=&quot;\nhttp://imageshack.com/a/img560/4048/261l.jpg&quot; rel=&quot;nofollow&quot; target=&quot;_NEW&quot;&gt;\nhttp://imageshack.com/a/img560/4048/261l.jpg&lt;/a&gt; &lt;a href=&quot;\nhttp://imageshack.com/a/img703/1082/pjnz.jpg&quot; rel=&quot;nofollow&quot; target=&quot;_NEW&quot;&gt;\nhttp://imageshack.com/a/img703/1082/pjnz.jpg&lt;/a&gt;\n\n\n\nMEDIA INFO :\nGeneral \nFormat : MPEG-4 \nFormat profile : Base Media \nFile size : 117 MiB \nDuration : 42mn 37s \nOverall bit rate mode : Variable \nOverall bit rate : 383 Kbps \n\nVideo \nFormat : AVC \nFormat/Info : Advanced Video Codec \nFormat profile : &lt;a class=&quot;__cf_email__&quot; href=&quot;/cdn-cgi/l/email-protection&quot; data-cfemail=&quot;0b43626c634b4738253b&quot;&gt;[email&amp;#160;protected]&lt;/a&gt;&lt;script cf-hash='f9e31' type=&quot;text/javascript&quot;&gt;\n/* &lt;![CDATA[ */!function(){try{var t=&quot;currentScript&quot;in document?document.currentScript:function(){for(var t=document.getElementsByTagName(&quot;script&quot;),e=t.length;e--;)if(t[e].getAttribute(&quot;cf-hash&quot;))return t[e]}();if(t&amp;&amp;t.previousSibling){var e,r,n,i,c=t.previousSibling,a=c.getAttribute(&quot;data-cfemail&quot;);if(a){for(e=&quot;&quot;,r=parseInt(a.substr(0,2),16),n=2;a.length-n;n+=2)i=parseInt(a.substr(n,2),16)^r,e+=String.fromCharCode(i);e=document.createTextNode(e),c.parentNode.replaceChild(e,c)}}}catch(u){}}();/* ]]&gt; */&lt;/script&gt; \nFormat settings, CABAC : Yes \nFormat settings, ReFrames : 4 frames \nDuration : 42mn 36s \nBit rate : 320 Kbps \nMaximum bit rate : 2 326 Kbps \nWidth : 720 pixels \nHeight : 404 pixels \nDisplay aspect ratio : 16:9 \nFrame rate : 23.976 fps \nStream size : 97.5 MiB (83%) \nTitle : White Collar S05E11 HDTV 480p x264 AAC E-Subs [GWC] \nWriting library : x264 core\n\nAudio \nFormat : AAC \nFormat profile : HE-AAC / LC \nDuration : 42mn 37s \nBit rate mode : Variable \nChannel(s) : 2 channels \nSampling rate : 48.0 KHz / 24.0 KHz \nStream size : 18.3 MiB (16%) \nLanguage : English \n\nText \nFormat : Timed Text \nDuration : 42mn 18s \nBit rate mode : Variable \nStream size : 29.0 KiB (0%) \nTitle : English Subtitle by honeybunny \nLanguage : English","torrent":{"xt":"urn:btih:9c11ee79842283552ab16d0c06e0bbcc92180c9e","amp;dn":"White+Collar+S05E11+HDTV+480p+x264+AAC+E-Subs+%5BGWC%5D.mp4","amp;tr":["udp%3A%2F%2Ftracker.openbittorrent.com%3A80","udp%3A%2F%2Fopen.demonii.com%3A1337","udp%3A%2F%2Ftracker.coppersurfer.tk%3A6969","udp%3A%2F%2Fexodus.desync.com%3A6969"],"infoHash":"9c11ee79842283552ab16d0c06e0bbcc92180c9e","infoHashBuffer":{"type":"Buffer","data":[156,17,238,121,132,34,131,85,42,177,109,12,6,224,187,204,146,24,12,158]},"announce":[],"urlList":[]}}